<svg width="32" height="32" viewBox="0 0 32 32" fill="none" xmlns="http://www.w3.org/2000/svg">
<path fill-rule="evenodd" clip-rule="evenodd" d="M2.10577 12.9688H6.75157V31.1299H2.10577C1.40629 31.1299 0.839172 30.5898 0.839172 29.9236V14.175C0.839172 13.5088 1.40629 12.9688 2.10577 12.9688Z" stroke="white" stroke-width="1.60838" stroke-linecap="round" stroke-linejoin="round"/>
<path fill-rule="evenodd" clip-rule="evenodd" d="M28.7796 27.7297C28.4855 29.9931 26.9732 31.1299 24.2848 31.1299H10.2172C8.30584 31.1299 6.75159 29.667 6.75159 27.8681V12.9905C11.2128 12.5556 13.4434 10.9982 13.4434 6.81039V4.80354C13.4434 2.68828 15.2439 0.973511 17.4649 0.973511C18.3113 0.973511 19.1361 1.2278 19.8219 1.70026C20.7671 2.35261 21.3693 3.58817 21.3693 5.36728V11.1765C21.3693 11.6707 22.2058 12.0759 23.0424 12.0759H27.5298C29.4202 12.0759 30.9535 13.4992 30.9955 15.2685C31.0235 16.448 30.2849 20.0991 28.7796 27.7297Z" stroke="white" stroke-width="1.60838" stroke-linecap="round" stroke-linejoin="round"/>
</svg>
