<svg width="28" height="29" viewBox="0 0 28 29" fill="none" xmlns="http://www.w3.org/2000/svg">
<path fill-rule="evenodd" clip-rule="evenodd" d="M16.8977 20.0292C15.0546 21.2479 12.8249 21.9189 10.4491 21.8208C4.43998 21.5726 -0.230422 16.4995 0.0177504 10.4901C0.265923 4.48069 5.33875 -0.188917 11.3479 0.0592559C17.3561 0.307348 22.0275 5.37945 21.7793 11.3889C21.6918 13.5072 21.0047 15.4592 19.8885 17.088L27.2251 24.2115C28.1303 25.1929 28.0979 26.7099 27.1678 27.6499L27.125 27.6893L27.0798 27.7284C26.0689 28.5779 24.5543 28.4868 23.65 27.5046L16.8977 20.0292ZM10.5529 19.309C5.93063 19.1181 2.33784 15.2157 2.52875 10.5935C2.71966 5.97125 6.62199 2.37846 11.2442 2.56937C15.8665 2.76028 19.4593 6.66261 19.2684 11.2848C19.0775 15.9071 15.1751 19.4999 10.5529 19.309Z" fill="white"/>
</svg>
